<?xml version="1.0" encoding="UTF-8" standalone="no"?>
<!DOCTYPE svg PUBLIC "-//W3C//DTD SVG 1.1//EN"
 "http://www.w3.org/Graphics/SVG/1.1/DTD/svg11.dtd">
<!-- Generated by graphviz version 12.1.1 (20240910.0053)
 -->
<!-- Pages: 1 -->
<svg width="1151pt" height="128pt"
 viewBox="0.00 0.00 1151.00 128.00" xmlns="http://www.w3.org/2000/svg" xmlns:xlink="http://www.w3.org/1999/xlink">
<g id="graph0" class="graph" transform="scale(1 1) rotate(0) translate(4 124)">
<polygon fill="white" stroke="none" points="-4,4 -4,-124 1147,-124 1147,4 -4,4"/>
<!-- 4557436928 -->
<g id="node1" class="node">
<title>4557436928</title>
<polygon fill="none" stroke="black" points="640.12,-82.5 640.12,-118.5 826.12,-118.5 826.12,-82.5 640.12,-82.5"/>
<text text-anchor="middle" x="650.38" y="-95.7" font-family="Times,serif" font-size="14.00">f</text>
<polyline fill="none" stroke="black" points="660.62,-83 660.62,-118.5"/>
<text text-anchor="middle" x="702.75" y="-95.7" font-family="Times,serif" font-size="14.00">data &#45;2.0000</text>
<polyline fill="none" stroke="black" points="744.88,-83 744.88,-118.5"/>
<text text-anchor="middle" x="785.5" y="-95.7" font-family="Times,serif" font-size="14.00">grad 4.0000</text>
</g>
<!-- 4557438320* -->
<g id="node9" class="node">
<title>4557438320*</title>
<ellipse fill="none" stroke="black" cx="890.25" cy="-72.5" rx="27" ry="18"/>
<text text-anchor="middle" x="890.25" y="-67.45" font-family="Times,serif" font-size="14.00">*</text>
</g>
<!-- 4557436928&#45;&gt;4557438320* -->
<g id="edge4" class="edge">
<title>4557436928&#45;&gt;4557438320*</title>
<path fill="none" stroke="black" d="M826.6,-83.81C835.76,-82.16 844.62,-80.56 852.67,-79.1"/>
<polygon fill="black" stroke="black" points="853.09,-82.58 862.31,-77.36 851.84,-75.7 853.09,-82.58"/>
</g>
<!-- 4557353568 -->
<g id="node2" class="node">
<title>4557353568</title>
<polygon fill="none" stroke="black" points="319.88,-55.5 319.88,-91.5 511.88,-91.5 511.88,-55.5 319.88,-55.5"/>
<text text-anchor="middle" x="330.88" y="-68.7" font-family="Times,serif" font-size="14.00">e</text>
<polyline fill="none" stroke="black" points="341.88,-56 341.88,-91.5"/>
<text text-anchor="middle" x="384" y="-68.7" font-family="Times,serif" font-size="14.00">data &#45;6.0000</text>
<polyline fill="none" stroke="black" points="426.12,-56 426.12,-91.5"/>
<text text-anchor="middle" x="469" y="-68.7" font-family="Times,serif" font-size="14.00">grad &#45;2.0000</text>
</g>
<!-- 4557429344+ -->
<g id="node5" class="node">
<title>4557429344+</title>
<ellipse fill="none" stroke="black" cx="576" cy="-45.5" rx="27" ry="18"/>
<text text-anchor="middle" x="576" y="-40.45" font-family="Times,serif" font-size="14.00">+</text>
</g>
<!-- 4557353568&#45;&gt;4557429344+ -->
<g id="edge9" class="edge">
<title>4557353568&#45;&gt;4557429344+</title>
<path fill="none" stroke="black" d="M512.05,-56.65C521.28,-55.01 530.2,-53.43 538.29,-52"/>
<polygon fill="black" stroke="black" points="538.74,-55.47 547.98,-50.28 537.52,-48.58 538.74,-55.47"/>
</g>
<!-- 4557353568* -->
<g id="node3" class="node">
<title>4557353568*</title>
<ellipse fill="none" stroke="black" cx="255.75" cy="-73.5" rx="27" ry="18"/>
<text text-anchor="middle" x="255.75" y="-68.45" font-family="Times,serif" font-size="14.00">*</text>
</g>
<!-- 4557353568*&#45;&gt;4557353568 -->
<g id="edge1" class="edge">
<title>4557353568*&#45;&gt;4557353568</title>
<path fill="none" stroke="black" d="M283.22,-73.5C290.59,-73.5 299.09,-73.5 308.13,-73.5"/>
<polygon fill="black" stroke="black" points="307.89,-77 317.89,-73.5 307.89,-70 307.89,-77"/>
</g>
<!-- 4557429344 -->
<g id="node4" class="node">
<title>4557429344</title>
<polygon fill="none" stroke="black" points="639,-27.5 639,-63.5 827.25,-63.5 827.25,-27.5 639,-27.5"/>
<text text-anchor="middle" x="650.38" y="-40.7" font-family="Times,serif" font-size="14.00">d</text>
<polyline fill="none" stroke="black" points="661.75,-28 661.75,-63.5"/>
<text text-anchor="middle" x="701.62" y="-40.7" font-family="Times,serif" font-size="14.00">data 4.0000</text>
<polyline fill="none" stroke="black" points="741.5,-28 741.5,-63.5"/>
<text text-anchor="middle" x="784.38" y="-40.7" font-family="Times,serif" font-size="14.00">grad &#45;2.0000</text>
</g>
<!-- 4557429344&#45;&gt;4557438320* -->
<g id="edge7" class="edge">
<title>4557429344&#45;&gt;4557438320*</title>
<path fill="none" stroke="black" d="M827.49,-61.75C836.27,-63.28 844.77,-64.76 852.51,-66.1"/>
<polygon fill="black" stroke="black" points="851.66,-69.51 862.11,-67.78 852.86,-62.61 851.66,-69.51"/>
</g>
<!-- 4557429344+&#45;&gt;4557429344 -->
<g id="edge2" class="edge">
<title>4557429344+&#45;&gt;4557429344</title>
<path fill="none" stroke="black" d="M603.31,-45.5C610.49,-45.5 618.72,-45.5 627.47,-45.5"/>
<polygon fill="black" stroke="black" points="627.29,-49 637.29,-45.5 627.29,-42 627.29,-49"/>
</g>
<!-- 4556447888 -->
<g id="node6" class="node">
<title>4556447888</title>
<polygon fill="none" stroke="black" points="4.88,-83.5 4.88,-119.5 187.88,-119.5 187.88,-83.5 4.88,-83.5"/>
<text text-anchor="middle" x="15.88" y="-96.7" font-family="Times,serif" font-size="14.00">a</text>
<polyline fill="none" stroke="black" points="26.88,-84 26.88,-119.5"/>
<text text-anchor="middle" x="66.75" y="-96.7" font-family="Times,serif" font-size="14.00">data 2.0000</text>
<polyline fill="none" stroke="black" points="106.62,-84 106.62,-119.5"/>
<text text-anchor="middle" x="147.25" y="-96.7" font-family="Times,serif" font-size="14.00">grad 6.0000</text>
</g>
<!-- 4556447888&#45;&gt;4557353568* -->
<g id="edge8" class="edge">
<title>4556447888&#45;&gt;4557353568*</title>
<path fill="none" stroke="black" d="M188.01,-85.37C198.67,-83.48 209.04,-81.63 218.3,-79.99"/>
<polygon fill="black" stroke="black" points="218.65,-83.48 227.88,-78.28 217.42,-76.59 218.65,-83.48"/>
</g>
<!-- 4557354336 -->
<g id="node7" class="node">
<title>4557354336</title>
<polygon fill="none" stroke="black" points="318.75,-0.5 318.75,-36.5 513,-36.5 513,-0.5 318.75,-0.5"/>
<text text-anchor="middle" x="329.75" y="-13.7" font-family="Times,serif" font-size="14.00">c</text>
<polyline fill="none" stroke="black" points="340.75,-1 340.75,-36.5"/>
<text text-anchor="middle" x="384" y="-13.7" font-family="Times,serif" font-size="14.00">data 10.0000</text>
<polyline fill="none" stroke="black" points="427.25,-1 427.25,-36.5"/>
<text text-anchor="middle" x="470.12" y="-13.7" font-family="Times,serif" font-size="14.00">grad &#45;2.0000</text>
</g>
<!-- 4557354336&#45;&gt;4557429344+ -->
<g id="edge6" class="edge">
<title>4557354336&#45;&gt;4557429344+</title>
<path fill="none" stroke="black" d="M513.41,-34.98C522.1,-36.47 530.5,-37.9 538.15,-39.21"/>
<polygon fill="black" stroke="black" points="537.55,-42.66 548,-40.89 538.73,-35.76 537.55,-42.66"/>
</g>
<!-- 4557438320 -->
<g id="node8" class="node">
<title>4557438320</title>
<polygon fill="none" stroke="black" points="953.25,-54.5 953.25,-90.5 1143,-90.5 1143,-54.5 953.25,-54.5"/>
<text text-anchor="middle" x="965.38" y="-67.7" font-family="Times,serif" font-size="14.00">L</text>
<polyline fill="none" stroke="black" points="977.5,-55 977.5,-90.5"/>
<text text-anchor="middle" x="1019.62" y="-67.7" font-family="Times,serif" font-size="14.00">data &#45;8.0000</text>
<polyline fill="none" stroke="black" points="1061.75,-55 1061.75,-90.5"/>
<text text-anchor="middle" x="1102.38" y="-67.7" font-family="Times,serif" font-size="14.00">grad 1.0000</text>
</g>
<!-- 4557438320*&#45;&gt;4557438320 -->
<g id="edge3" class="edge">
<title>4557438320*&#45;&gt;4557438320</title>
<path fill="none" stroke="black" d="M917.69,-72.5C924.84,-72.5 933.03,-72.5 941.74,-72.5"/>
<polygon fill="black" stroke="black" points="941.51,-76 951.51,-72.5 941.51,-69 941.51,-76"/>
</g>
<!-- 4555233696 -->
<g id="node10" class="node">
<title>4555233696</title>
<polygon fill="none" stroke="black" points="0,-28.5 0,-64.5 192.75,-64.5 192.75,-28.5 0,-28.5"/>
<text text-anchor="middle" x="11.38" y="-41.7" font-family="Times,serif" font-size="14.00">b</text>
<polyline fill="none" stroke="black" points="22.75,-29 22.75,-64.5"/>
<text text-anchor="middle" x="64.88" y="-41.7" font-family="Times,serif" font-size="14.00">data &#45;3.0000</text>
<polyline fill="none" stroke="black" points="107,-29 107,-64.5"/>
<text text-anchor="middle" x="149.88" y="-41.7" font-family="Times,serif" font-size="14.00">grad &#45;4.0000</text>
</g>
<!-- 4555233696&#45;&gt;4557353568* -->
<g id="edge5" class="edge">
<title>4555233696&#45;&gt;4557353568*</title>
<path fill="none" stroke="black" d="M193,-62.91C201.81,-64.42 210.32,-65.88 218.06,-67.2"/>
<polygon fill="black" stroke="black" points="217.21,-70.61 227.66,-68.85 218.4,-63.71 217.21,-70.61"/>
</g>
</g>
</svg>
