<?xml version="1.0" encoding="UTF-8" standalone="no"?>
<!DOCTYPE svg PUBLIC "-//W3C//DTD SVG 1.1//EN"
 "http://www.w3.org/Graphics/SVG/1.1/DTD/svg11.dtd">
<!-- Generated by graphviz version 12.1.1 (20240910.0053)
 -->
<!-- Pages: 1 -->
<svg width="1504pt" height="210pt"
 viewBox="0.00 0.00 1504.25 210.00" xmlns="http://www.w3.org/2000/svg" xmlns:xlink="http://www.w3.org/1999/xlink">
<g id="graph0" class="graph" transform="scale(1 1) rotate(0) translate(4 206)">
<polygon fill="white" stroke="none" points="-4,4 -4,-206 1500.25,-206 1500.25,4 -4,4"/>
<!-- 4558780464 -->
<g id="node1" class="node">
<title>4558780464</title>
<polygon fill="none" stroke="black" points="326.25,-55.5 326.25,-91.5 540,-91.5 540,-55.5 326.25,-55.5"/>
<text text-anchor="middle" x="352.62" y="-68.7" font-family="Times,serif" font-size="14.00">x2*w2</text>
<polyline fill="none" stroke="black" points="379,-56 379,-91.5"/>
<text text-anchor="middle" x="418.88" y="-68.7" font-family="Times,serif" font-size="14.00">data 0.0000</text>
<polyline fill="none" stroke="black" points="458.75,-56 458.75,-91.5"/>
<text text-anchor="middle" x="499.38" y="-68.7" font-family="Times,serif" font-size="14.00">grad 0.0000</text>
</g>
<!-- 4558780992+ -->
<g id="node4" class="node">
<title>4558780992+</title>
<ellipse fill="none" stroke="black" cx="605.25" cy="-100.5" rx="27" ry="18"/>
<text text-anchor="middle" x="605.25" y="-95.45" font-family="Times,serif" font-size="14.00">+</text>
</g>
<!-- 4558780464&#45;&gt;4558780992+ -->
<g id="edge10" class="edge">
<title>4558780464&#45;&gt;4558780992+</title>
<path fill="none" stroke="black" d="M540.42,-90.37C549.89,-91.87 559,-93.32 567.21,-94.62"/>
<polygon fill="black" stroke="black" points="566.63,-98.07 577.05,-96.18 567.72,-91.16 566.63,-98.07"/>
</g>
<!-- 4558780464* -->
<g id="node2" class="node">
<title>4558780464*</title>
<ellipse fill="none" stroke="black" cx="261" cy="-73.5" rx="27" ry="18"/>
<text text-anchor="middle" x="261" y="-68.45" font-family="Times,serif" font-size="14.00">*</text>
</g>
<!-- 4558780464*&#45;&gt;4558780464 -->
<g id="edge1" class="edge">
<title>4558780464*&#45;&gt;4558780464</title>
<path fill="none" stroke="black" d="M288.21,-73.5C296,-73.5 305.08,-73.5 314.82,-73.5"/>
<polygon fill="black" stroke="black" points="314.55,-77 324.55,-73.5 314.55,-70 314.55,-77"/>
</g>
<!-- 4558780992 -->
<g id="node3" class="node">
<title>4558780992</title>
<polygon fill="none" stroke="black" points="668.25,-82.5 668.25,-118.5 939,-118.5 939,-82.5 668.25,-82.5"/>
<text text-anchor="middle" x="720.88" y="-95.7" font-family="Times,serif" font-size="14.00">x1*w1 + x2*w2</text>
<polyline fill="none" stroke="black" points="773.5,-83 773.5,-118.5"/>
<text text-anchor="middle" x="815.62" y="-95.7" font-family="Times,serif" font-size="14.00">data &#45;6.0000</text>
<polyline fill="none" stroke="black" points="857.75,-83 857.75,-118.5"/>
<text text-anchor="middle" x="898.38" y="-95.7" font-family="Times,serif" font-size="14.00">grad 0.0000</text>
</g>
<!-- 4557776192+ -->
<g id="node7" class="node">
<title>4557776192+</title>
<ellipse fill="none" stroke="black" cx="1002" cy="-127.5" rx="27" ry="18"/>
<text text-anchor="middle" x="1002" y="-122.45" font-family="Times,serif" font-size="14.00">+</text>
</g>
<!-- 4558780992&#45;&gt;4557776192+ -->
<g id="edge12" class="edge">
<title>4558780992&#45;&gt;4557776192+</title>
<path fill="none" stroke="black" d="M939.14,-118.99C947.95,-120.21 956.31,-121.36 963.87,-122.4"/>
<polygon fill="black" stroke="black" points="963.16,-125.83 973.55,-123.73 964.12,-118.9 963.16,-125.83"/>
</g>
<!-- 4558780992+&#45;&gt;4558780992 -->
<g id="edge2" class="edge">
<title>4558780992+&#45;&gt;4558780992</title>
<path fill="none" stroke="black" d="M632.73,-100.5C639.73,-100.5 647.79,-100.5 656.52,-100.5"/>
<polygon fill="black" stroke="black" points="656.39,-104 666.39,-100.5 656.39,-97 656.39,-104"/>
</g>
<!-- 4557522128 -->
<g id="node5" class="node">
<title>4557522128</title>
<polygon fill="none" stroke="black" points="3.75,-55.5 3.75,-91.5 194.25,-91.5 194.25,-55.5 3.75,-55.5"/>
<text text-anchor="middle" x="18.5" y="-68.7" font-family="Times,serif" font-size="14.00">x2</text>
<polyline fill="none" stroke="black" points="33.25,-56 33.25,-91.5"/>
<text text-anchor="middle" x="73.12" y="-68.7" font-family="Times,serif" font-size="14.00">data 0.0000</text>
<polyline fill="none" stroke="black" points="113,-56 113,-91.5"/>
<text text-anchor="middle" x="153.62" y="-68.7" font-family="Times,serif" font-size="14.00">grad 0.0000</text>
</g>
<!-- 4557522128&#45;&gt;4558780464* -->
<g id="edge13" class="edge">
<title>4557522128&#45;&gt;4558780464*</title>
<path fill="none" stroke="black" d="M194.46,-73.5C204.21,-73.5 213.66,-73.5 222.21,-73.5"/>
<polygon fill="black" stroke="black" points="222.12,-77 232.12,-73.5 222.12,-70 222.12,-77"/>
</g>
<!-- 4557776192 -->
<g id="node6" class="node">
<title>4557776192</title>
<polygon fill="none" stroke="black" points="1065,-109.5 1065,-145.5 1248.75,-145.5 1248.75,-109.5 1065,-109.5"/>
<text text-anchor="middle" x="1076.38" y="-122.7" font-family="Times,serif" font-size="14.00">n</text>
<polyline fill="none" stroke="black" points="1087.75,-110 1087.75,-145.5"/>
<text text-anchor="middle" x="1127.62" y="-122.7" font-family="Times,serif" font-size="14.00">data 0.8814</text>
<polyline fill="none" stroke="black" points="1167.5,-110 1167.5,-145.5"/>
<text text-anchor="middle" x="1208.12" y="-122.7" font-family="Times,serif" font-size="14.00">grad 0.0000</text>
</g>
<!-- 4557781328 -->
<g id="node8" class="node">
<title>4557781328</title>
<polygon fill="none" stroke="black" points="1284.75,-109.5 1284.75,-145.5 1496.25,-145.5 1496.25,-109.5 1284.75,-109.5"/>
<text text-anchor="middle" x="1310" y="-122.7" font-family="Times,serif" font-size="14.00">output</text>
<polyline fill="none" stroke="black" points="1335.25,-110 1335.25,-145.5"/>
<text text-anchor="middle" x="1375.12" y="-122.7" font-family="Times,serif" font-size="14.00">data 0.7071</text>
<polyline fill="none" stroke="black" points="1415,-110 1415,-145.5"/>
<text text-anchor="middle" x="1455.62" y="-122.7" font-family="Times,serif" font-size="14.00">grad 0.0000</text>
</g>
<!-- 4557776192&#45;&gt;4557781328 -->
<g id="edge11" class="edge">
<title>4557776192&#45;&gt;4557781328</title>
<path fill="none" stroke="black" d="M1249.09,-127.5C1257,-127.5 1265.08,-127.5 1273.16,-127.5"/>
<polygon fill="black" stroke="black" points="1273.06,-131 1283.06,-127.5 1273.06,-124 1273.06,-131"/>
</g>
<!-- 4557776192+&#45;&gt;4557776192 -->
<g id="edge3" class="edge">
<title>4557776192+&#45;&gt;4557776192</title>
<path fill="none" stroke="black" d="M1029.28,-127.5C1036.42,-127.5 1044.61,-127.5 1053.32,-127.5"/>
<polygon fill="black" stroke="black" points="1053.06,-131 1063.06,-127.5 1053.06,-124 1053.06,-131"/>
</g>
<!-- 4557533552 -->
<g id="node9" class="node">
<title>4557533552</title>
<polygon fill="none" stroke="black" points="3.75,-165.5 3.75,-201.5 194.25,-201.5 194.25,-165.5 3.75,-165.5"/>
<text text-anchor="middle" x="18.5" y="-178.7" font-family="Times,serif" font-size="14.00">x1</text>
<polyline fill="none" stroke="black" points="33.25,-166 33.25,-201.5"/>
<text text-anchor="middle" x="73.12" y="-178.7" font-family="Times,serif" font-size="14.00">data 2.0000</text>
<polyline fill="none" stroke="black" points="113,-166 113,-201.5"/>
<text text-anchor="middle" x="153.62" y="-178.7" font-family="Times,serif" font-size="14.00">grad 0.0000</text>
</g>
<!-- 4558767552* -->
<g id="node12" class="node">
<title>4558767552*</title>
<ellipse fill="none" stroke="black" cx="261" cy="-128.5" rx="27" ry="18"/>
<text text-anchor="middle" x="261" y="-123.45" font-family="Times,serif" font-size="14.00">*</text>
</g>
<!-- 4557533552&#45;&gt;4558767552* -->
<g id="edge5" class="edge">
<title>4557533552&#45;&gt;4558767552*</title>
<path fill="none" stroke="black" d="M172.12,-165.01C180.9,-162.35 189.7,-159.5 198,-156.5 208.09,-152.86 218.82,-148.27 228.47,-143.88"/>
<polygon fill="black" stroke="black" points="229.86,-147.09 237.45,-139.69 226.9,-140.75 229.86,-147.09"/>
</g>
<!-- 4553884064 -->
<g id="node10" class="node">
<title>4553884064</title>
<polygon fill="none" stroke="black" points="711.75,-137.5 711.75,-173.5 895.5,-173.5 895.5,-137.5 711.75,-137.5"/>
<text text-anchor="middle" x="723.12" y="-150.7" font-family="Times,serif" font-size="14.00">b</text>
<polyline fill="none" stroke="black" points="734.5,-138 734.5,-173.5"/>
<text text-anchor="middle" x="774.38" y="-150.7" font-family="Times,serif" font-size="14.00">data 6.8814</text>
<polyline fill="none" stroke="black" points="814.25,-138 814.25,-173.5"/>
<text text-anchor="middle" x="854.88" y="-150.7" font-family="Times,serif" font-size="14.00">grad 0.0000</text>
</g>
<!-- 4553884064&#45;&gt;4557776192+ -->
<g id="edge6" class="edge">
<title>4553884064&#45;&gt;4557776192+</title>
<path fill="none" stroke="black" d="M895.91,-142.48C919.97,-139.05 944.58,-135.55 963.93,-132.79"/>
<polygon fill="black" stroke="black" points="964.34,-136.26 973.75,-131.39 963.35,-129.33 964.34,-136.26"/>
</g>
<!-- 4558767552 -->
<g id="node11" class="node">
<title>4558767552</title>
<polygon fill="none" stroke="black" points="324,-110.5 324,-146.5 542.25,-146.5 542.25,-110.5 324,-110.5"/>
<text text-anchor="middle" x="350.38" y="-123.7" font-family="Times,serif" font-size="14.00">x1*w1</text>
<polyline fill="none" stroke="black" points="376.75,-111 376.75,-146.5"/>
<text text-anchor="middle" x="418.88" y="-123.7" font-family="Times,serif" font-size="14.00">data &#45;6.0000</text>
<polyline fill="none" stroke="black" points="461,-111 461,-146.5"/>
<text text-anchor="middle" x="501.62" y="-123.7" font-family="Times,serif" font-size="14.00">grad 0.0000</text>
</g>
<!-- 4558767552&#45;&gt;4558780992+ -->
<g id="edge9" class="edge">
<title>4558767552&#45;&gt;4558780992+</title>
<path fill="none" stroke="black" d="M542.35,-110.69C551.12,-109.24 559.54,-107.86 567.19,-106.6"/>
<polygon fill="black" stroke="black" points="567.72,-110.06 577.02,-104.98 566.58,-103.15 567.72,-110.06"/>
</g>
<!-- 4558767552*&#45;&gt;4558767552 -->
<g id="edge4" class="edge">
<title>4558767552*&#45;&gt;4558767552</title>
<path fill="none" stroke="black" d="M288.21,-128.5C295.29,-128.5 303.43,-128.5 312.17,-128.5"/>
<polygon fill="black" stroke="black" points="312.01,-132 322.01,-128.5 312.01,-125 312.01,-132"/>
</g>
<!-- 4553893328 -->
<g id="node13" class="node">
<title>4553893328</title>
<polygon fill="none" stroke="black" points="2.25,-0.5 2.25,-36.5 195.75,-36.5 195.75,-0.5 2.25,-0.5"/>
<text text-anchor="middle" x="18.5" y="-13.7" font-family="Times,serif" font-size="14.00">w2</text>
<polyline fill="none" stroke="black" points="34.75,-1 34.75,-36.5"/>
<text text-anchor="middle" x="74.62" y="-13.7" font-family="Times,serif" font-size="14.00">data 1.0000</text>
<polyline fill="none" stroke="black" points="114.5,-1 114.5,-36.5"/>
<text text-anchor="middle" x="155.12" y="-13.7" font-family="Times,serif" font-size="14.00">grad 0.0000</text>
</g>
<!-- 4553893328&#45;&gt;4558780464* -->
<g id="edge8" class="edge">
<title>4553893328&#45;&gt;4558780464*</title>
<path fill="none" stroke="black" d="M168.91,-36.94C178.74,-39.93 188.67,-43.15 198,-46.5 207.96,-50.07 218.58,-54.47 228.18,-58.68"/>
<polygon fill="black" stroke="black" points="226.54,-61.78 237.1,-62.67 229.4,-55.39 226.54,-61.78"/>
</g>
<!-- 4557534176 -->
<g id="node14" class="node">
<title>4557534176</title>
<polygon fill="none" stroke="black" points="0,-110.5 0,-146.5 198,-146.5 198,-110.5 0,-110.5"/>
<text text-anchor="middle" x="16.25" y="-123.7" font-family="Times,serif" font-size="14.00">w1</text>
<polyline fill="none" stroke="black" points="32.5,-111 32.5,-146.5"/>
<text text-anchor="middle" x="74.62" y="-123.7" font-family="Times,serif" font-size="14.00">data &#45;3.0000</text>
<polyline fill="none" stroke="black" points="116.75,-111 116.75,-146.5"/>
<text text-anchor="middle" x="157.38" y="-123.7" font-family="Times,serif" font-size="14.00">grad 0.0000</text>
</g>
<!-- 4557534176&#45;&gt;4558767552* -->
<g id="edge7" class="edge">
<title>4557534176&#45;&gt;4558767552*</title>
<path fill="none" stroke="black" d="M198.14,-128.5C206.61,-128.5 214.8,-128.5 222.29,-128.5"/>
<polygon fill="black" stroke="black" points="222.29,-132 232.29,-128.5 222.29,-125 222.29,-132"/>
</g>
</g>
</svg>
